<?xml version="1.0" encoding="utf-8"?>
<!-- Generator: Adobe Illustrator 16.0.0, SVG Export Plug-In . SVG Version: 6.00 Build 0)  -->
<!DOCTYPE svg PUBLIC "-//W3C//DTD SVG 1.1//EN" "http://www.w3.org/Graphics/SVG/1.1/DTD/svg11.dtd">
<svg version="1.1" id="Layer_1" xmlns="http://www.w3.org/2000/svg" xmlns:xlink="http://www.w3.org/1999/xlink" x="0px" y="0px"
	 width="32px" height="32px" viewBox="0 0 32 32" enable-background="new 0 0 32 32" xml:space="preserve">
<g>
	<g>
		
			<linearGradient id="SVGID_1_" gradientUnits="userSpaceOnUse" x1="219.0664" y1="-295.335" x2="225.0976" y2="-295.335" gradientTransform="matrix(1 0 0 -1 -197.6602 -287.96)">
			<stop  offset="0.1969" style="stop-color:#949597"/>
			<stop  offset="0.6245" style="stop-color:#C1C2C4"/>
		</linearGradient>
		<path fill="url(#SVGID_1_)" d="M21.063,7.131c0-0.332,0.269-0.6,0.6-0.6h4.699c0.331,0,0.6,0.269,0.6,0.6v1.087h-5.898V7.131z"/>
		
			<radialGradient id="SVGID_2_" cx="1744.8906" cy="283.1143" r="1" gradientTransform="matrix(1.339458e-017 0.2188 1.6875 -1.033296e-016 -452.3164 -374.7256)" gradientUnits="userSpaceOnUse">
			<stop  offset="0" style="stop-color:#CFD0D2"/>
			<stop  offset="1" style="stop-color:#CFD0D2;stop-opacity:0"/>
		</radialGradient>
		<path fill="url(#SVGID_2_)" d="M21.063,7.131c0-0.332,0.269-0.6,0.6-0.6h4.699c0.331,0,0.6,0.269,0.6,0.6v1.087h-5.898V7.131z"/>
	</g>
	<g>
		
			<linearGradient id="SVGID_3_" gradientUnits="userSpaceOnUse" x1="202.9697" y1="-295.335" x2="207.0278" y2="-295.335" gradientTransform="matrix(1 0 0 -1 -197.6602 -287.96)">
			<stop  offset="0.1969" style="stop-color:#949597"/>
			<stop  offset="0.6245" style="stop-color:#C1C2C4"/>
		</linearGradient>
		<path fill="url(#SVGID_3_)" d="M5.078,7.081c0-0.304,0.246-0.55,0.55-0.55h2.869c0.304,0,0.55,0.246,0.55,0.55v1.138H5.078V7.081z
			"/>
		
			<radialGradient id="SVGID_4_" cx="1744.8906" cy="364.125" r="1" gradientTransform="matrix(1.339458e-017 0.2188 1.1354 -6.952504e-017 -405.4153 -374.7256)" gradientUnits="userSpaceOnUse">
			<stop  offset="0" style="stop-color:#CFD0D2"/>
			<stop  offset="1" style="stop-color:#CFD0D2;stop-opacity:0"/>
		</radialGradient>
		<path fill="url(#SVGID_4_)" d="M5.078,7.081c0-0.304,0.246-0.55,0.55-0.55h2.869c0.304,0,0.55,0.246,0.55,0.55v1.138H5.078V7.081z
			"/>
	</g>
	<g>
		<path fill="#DAD4E6" d="M2.031,9.523c0-1.104,0.896-2,2-2h23.938c1.104,0,2,0.896,2,2v1.664c0,0.138-0.111,0.25-0.25,0.25H2.281
			c-0.138,0-0.25-0.112-0.25-0.25V9.523z"/>
		
			<linearGradient id="SVGID_5_" gradientUnits="userSpaceOnUse" x1="213.6602" y1="-295.4834" x2="213.6602" y2="-297.1162" gradientTransform="matrix(1 0 0 -1 -197.6602 -287.96)">
			<stop  offset="0" style="stop-color:#D8D8DC"/>
			<stop  offset="1" style="stop-color:#D8D8DC;stop-opacity:0"/>
		</linearGradient>
		<path fill="url(#SVGID_5_)" d="M2.031,9.523c0-1.104,0.896-2,2-2h23.938c1.104,0,2,0.896,2,2v1.664c0,0.138-0.111,0.25-0.25,0.25
			H2.281c-0.138,0-0.25-0.112-0.25-0.25V9.523z"/>
		
			<linearGradient id="SVGID_6_" gradientUnits="userSpaceOnUse" x1="199.6914" y1="-297.4404" x2="201.2539" y2="-297.4404" gradientTransform="matrix(1 0 0 -1 -197.6602 -287.96)">
			<stop  offset="0.22" style="stop-color:#C6C3CC"/>
			<stop  offset="1" style="stop-color:#C6C3CC;stop-opacity:0"/>
		</linearGradient>
		<path fill="url(#SVGID_6_)" d="M2.031,9.523c0-1.104,0.896-2,2-2h23.938c1.104,0,2,0.896,2,2v1.664c0,0.138-0.111,0.25-0.25,0.25
			H2.281c-0.138,0-0.25-0.112-0.25-0.25V9.523z"/>
		
			<linearGradient id="SVGID_7_" gradientUnits="userSpaceOnUse" x1="227.6279" y1="-297.4395" x2="225.0654" y2="-297.4395" gradientTransform="matrix(1 0 0 -1 -197.6602 -287.96)">
			<stop  offset="0.15" style="stop-color:#F9F7FE"/>
			<stop  offset="1" style="stop-color:#D3CDDD;stop-opacity:0"/>
		</linearGradient>
		<path fill="url(#SVGID_7_)" d="M2.031,9.523c0-1.104,0.896-2,2-2h23.938c1.104,0,2,0.896,2,2v1.664c0,0.138-0.111,0.25-0.25,0.25
			H2.281c-0.138,0-0.25-0.112-0.25-0.25V9.523z"/>
		
			<radialGradient id="SVGID_8_" cx="-36.6475" cy="348.8164" r="1" gradientTransform="matrix(-1.2188 1.1992 1.456 1.4798 -522.5858 -463.9373)" gradientUnits="userSpaceOnUse">
			<stop  offset="0.15" style="stop-color:#F9F7FE"/>
			<stop  offset="1" style="stop-color:#F9F7FE;stop-opacity:0"/>
		</radialGradient>
		<path fill="url(#SVGID_8_)" d="M2.031,9.523c0-1.104,0.896-2,2-2h23.938c1.104,0,2,0.896,2,2v1.664c0,0.138-0.111,0.25-0.25,0.25
			H2.281c-0.138,0-0.25-0.112-0.25-0.25V9.523z"/>
		
			<linearGradient id="SVGID_9_" gradientUnits="userSpaceOnUse" x1="213.6602" y1="-299.3975" x2="213.6602" y2="-299.0538" gradientTransform="matrix(1 0 0 -1 -197.6602 -287.96)">
			<stop  offset="0" style="stop-color:#B6ADC6"/>
			<stop  offset="1" style="stop-color:#B6ADC6;stop-opacity:0"/>
		</linearGradient>
		<path fill="url(#SVGID_9_)" d="M2.031,9.523c0-1.104,0.896-2,2-2h23.938c1.104,0,2,0.896,2,2v1.664c0,0.138-0.111,0.25-0.25,0.25
			H2.281c-0.138,0-0.25-0.112-0.25-0.25V9.523z"/>
	</g>
	
		<linearGradient id="SVGID_10_" gradientUnits="userSpaceOnUse" x1="213.6602" y1="-311.5386" x2="213.6602" y2="-313.3667" gradientTransform="matrix(1 0 0 -1 -197.6602 -287.96)">
		<stop  offset="0" style="stop-color:#CFC6DE"/>
		<stop  offset="1" style="stop-color:#C3B4D7"/>
	</linearGradient>
	<path fill="url(#SVGID_10_)" d="M2.031,23.641c0,0.976,0.79,1.766,1.765,1.766h24.407c0.976,0,1.766-0.79,1.766-1.766
		c0-0.034-0.028-0.063-0.063-0.063H2.094C2.06,23.578,2.031,23.606,2.031,23.641z"/>
	
		<linearGradient id="SVGID_11_" gradientUnits="userSpaceOnUse" x1="213.6602" y1="-313.3657" x2="213.6602" y2="-311.9595" gradientTransform="matrix(1 0 0 -1 -197.6602 -287.96)">
		<stop  offset="0" style="stop-color:#AC91C9"/>
		<stop  offset="1" style="stop-color:#C2B3D6;stop-opacity:0"/>
	</linearGradient>
	<path fill="url(#SVGID_11_)" d="M2.031,23.641c0,0.976,0.79,1.766,1.765,1.766h24.407c0.976,0,1.766-0.79,1.766-1.766
		c0-0.034-0.028-0.063-0.063-0.063H2.094C2.06,23.578,2.031,23.606,2.031,23.641z"/>
	
		<linearGradient id="SVGID_12_" gradientUnits="userSpaceOnUse" x1="213.6602" y1="-311.5386" x2="213.6602" y2="-312.0543" gradientTransform="matrix(1 0 0 -1 -197.6602 -287.96)">
		<stop  offset="0" style="stop-color:#CFCBD7"/>
		<stop  offset="1" style="stop-color:#CFCBD7;stop-opacity:0"/>
	</linearGradient>
	<path fill="url(#SVGID_12_)" d="M2.031,23.641c0,0.976,0.79,1.766,1.765,1.766h24.407c0.976,0,1.766-0.79,1.766-1.766
		c0-0.034-0.028-0.063-0.063-0.063H2.094C2.06,23.578,2.031,23.606,2.031,23.641z"/>
	
		<radialGradient id="SVGID_13_" cx="122.9316" cy="340.4824" r="1" gradientTransform="matrix(1.186370e-016 1.9375 1.2553 -7.686373e-017 -398.119 -214.9921)" gradientUnits="userSpaceOnUse">
		<stop  offset="0.2419" style="stop-color:#F7F4FE"/>
		<stop  offset="1" style="stop-color:#C8BCDB;stop-opacity:0"/>
	</radialGradient>
	<path fill="url(#SVGID_13_)" d="M2.031,23.641c0,0.976,0.79,1.766,1.765,1.766h24.407c0.976,0,1.766-0.79,1.766-1.766
		c0-0.034-0.028-0.063-0.063-0.063H2.094C2.06,23.578,2.031,23.606,2.031,23.641z"/>
	
		<radialGradient id="SVGID_14_" cx="3.5674" cy="159.8691" r="0.9994" gradientTransform="matrix(2.812861e-016 4.5938 6.4831 -3.969766e-016 -1022.1936 4.4297)" gradientUnits="userSpaceOnUse">
		<stop  offset="0.6452" style="stop-color:#9884AF"/>
		<stop  offset="1" style="stop-color:#9884AF;stop-opacity:0"/>
	</radialGradient>
	<path fill="url(#SVGID_14_)" d="M2.031,23.641c0,0.976,0.79,1.766,1.765,1.766h24.407c0.976,0,1.766-0.79,1.766-1.766
		c0-0.034-0.028-0.063-0.063-0.063H2.094C2.06,23.578,2.031,23.606,2.031,23.641z"/>
	
		<linearGradient id="SVGID_15_" gradientUnits="userSpaceOnUse" x1="217.9414" y1="-305.4678" x2="226.9415" y2="-305.4678" gradientTransform="matrix(1 0 0 -1 -197.6602 -287.96)">
		<stop  offset="0" style="stop-color:#66636F"/>
		<stop  offset="1" style="stop-color:#6B6873"/>
	</linearGradient>
	<path fill="url(#SVGID_15_)" d="M2.031,11.688c0-0.138,0.112-0.25,0.25-0.25h27.438c0.139,0,0.25,0.112,0.25,0.25v11.641
		c0,0.139-0.111,0.25-0.25,0.25H2.281c-0.138,0-0.25-0.111-0.25-0.25V11.688z"/>
	
		<linearGradient id="SVGID_16_" gradientUnits="userSpaceOnUse" x1="199.7129" y1="-305.3052" x2="202.4005" y2="-305.3365" gradientTransform="matrix(1 0 0 -1 -197.6602 -287.96)">
		<stop  offset="0.3421" style="stop-color:#5E5C64"/>
		<stop  offset="1" style="stop-color:#5E5C64;stop-opacity:0"/>
	</linearGradient>
	<path fill="url(#SVGID_16_)" d="M2.031,11.688c0-0.138,0.112-0.25,0.25-0.25h27.438c0.139,0,0.25,0.112,0.25,0.25v11.641
		c0,0.139-0.111,0.25-0.25,0.25H2.281c-0.138,0-0.25-0.111-0.25-0.25V11.688z"/>
	
		<linearGradient id="SVGID_17_" gradientUnits="userSpaceOnUse" x1="199.3477" y1="-305.4678" x2="200.5039" y2="-305.4678" gradientTransform="matrix(1 0 0 -1 -197.6602 -287.96)">
		<stop  offset="0" style="stop-color:#8F8F91"/>
		<stop  offset="1" style="stop-color:#6D6C71;stop-opacity:0"/>
	</linearGradient>
	<path fill="url(#SVGID_17_)" d="M2.031,11.688c0-0.138,0.112-0.25,0.25-0.25h27.438c0.139,0,0.25,0.112,0.25,0.25v11.641
		c0,0.139-0.111,0.25-0.25,0.25H2.281c-0.138,0-0.25-0.111-0.25-0.25V11.688z"/>
	
		<linearGradient id="SVGID_18_" gradientUnits="userSpaceOnUse" x1="213.6602" y1="-299.3975" x2="213.6602" y2="-300.1475" gradientTransform="matrix(1 0 0 -1 -197.6602 -287.96)">
		<stop  offset="0" style="stop-color:#706F76"/>
		<stop  offset="1" style="stop-color:#706F76;stop-opacity:0"/>
	</linearGradient>
	<path fill="url(#SVGID_18_)" d="M2.031,11.688c0-0.138,0.112-0.25,0.25-0.25h27.438c0.139,0,0.25,0.112,0.25,0.25v11.641
		c0,0.139-0.111,0.25-0.25,0.25H2.281c-0.138,0-0.25-0.111-0.25-0.25V11.688z"/>
	
		<linearGradient id="SVGID_19_" gradientUnits="userSpaceOnUse" x1="213.6602" y1="-299.3975" x2="213.6602" y2="-299.7256" gradientTransform="matrix(1 0 0 -1 -197.6602 -287.96)">
		<stop  offset="0" style="stop-color:#5F5E65"/>
		<stop  offset="1" style="stop-color:#5F5E65;stop-opacity:0"/>
	</linearGradient>
	<path fill="url(#SVGID_19_)" d="M2.031,11.688c0-0.138,0.112-0.25,0.25-0.25h27.438c0.139,0,0.25,0.112,0.25,0.25v11.641
		c0,0.139-0.111,0.25-0.25,0.25H2.281c-0.138,0-0.25-0.111-0.25-0.25V11.688z"/>
	
		<linearGradient id="SVGID_20_" gradientUnits="userSpaceOnUse" x1="213.6602" y1="-311.5376" x2="213.6602" y2="-310.9282" gradientTransform="matrix(1 0 0 -1 -197.6602 -287.96)">
		<stop  offset="0" style="stop-color:#5C536A"/>
		<stop  offset="1" style="stop-color:#5C536A;stop-opacity:0"/>
	</linearGradient>
	<path fill="url(#SVGID_20_)" d="M2.031,11.688c0-0.138,0.112-0.25,0.25-0.25h27.438c0.139,0,0.25,0.112,0.25,0.25v11.641
		c0,0.139-0.111,0.25-0.25,0.25H2.281c-0.138,0-0.25-0.111-0.25-0.25V11.688z"/>
	
		<radialGradient id="SVGID_21_" cx="-25.9561" cy="115.2744" r="1" gradientTransform="matrix(5.0312 6.8438 6.8176 -5.012 -641.6765 774.803)" gradientUnits="userSpaceOnUse">
		<stop  offset="0.597" style="stop-color:#4B4357"/>
		<stop  offset="1" style="stop-color:#524C5D;stop-opacity:0"/>
	</radialGradient>
	<path fill="url(#SVGID_21_)" d="M2.031,11.688c0-0.138,0.112-0.25,0.25-0.25h27.438c0.139,0,0.25,0.112,0.25,0.25v11.641
		c0,0.139-0.111,0.25-0.25,0.25H2.281c-0.138,0-0.25-0.111-0.25-0.25V11.688z"/>
	<g>
		
			<radialGradient id="SVGID_22_" cx="-82.7163" cy="160.2129" r="1.0003" gradientTransform="matrix(-9.0313 6.5937 6.5937 9.0313 -1782.0984 -887.3458)" gradientUnits="userSpaceOnUse">
			<stop  offset="0" style="stop-color:#A6A2AE"/>
			<stop  offset="1" style="stop-color:#A6A2AF"/>
		</radialGradient>
		<circle fill="url(#SVGID_22_)" cx="16" cy="17.477" r="7.016"/>
	</g>
	<g>
		
			<linearGradient id="SVGID_23_" gradientUnits="userSpaceOnUse" x1="215.4893" y1="-299.7705" x2="212.2077" y2="-309.9355" gradientTransform="matrix(1 0 0 -1 -197.6602 -287.96)">
			<stop  offset="0" style="stop-color:#6A6375"/>
			<stop  offset="1" style="stop-color:#6A6375;stop-opacity:0"/>
		</linearGradient>
		<circle fill="none" stroke="url(#SVGID_23_)" stroke-width="0.3" cx="16" cy="17.477" r="4.969"/>
		
			<linearGradient id="SVGID_24_" gradientUnits="userSpaceOnUse" x1="210.7256" y1="-309.4341" x2="212.5381" y2="-306.9654" gradientTransform="matrix(1 0 0 -1 -197.6602 -287.96)">
			<stop  offset="0.363" style="stop-color:#B7B6BD"/>
			<stop  offset="1" style="stop-color:#B7B6BD;stop-opacity:0"/>
		</linearGradient>
		<circle fill="none" stroke="url(#SVGID_24_)" stroke-width="0.3" cx="16" cy="17.477" r="4.969"/>
	</g>
	
		<radialGradient id="SVGID_25_" cx="-82.1938" cy="198" r="1.0003" gradientTransform="matrix(-5.1875 3.7813 3.533 4.8468 -1107.1862 -632.7261)" gradientUnits="userSpaceOnUse">
		<stop  offset="0.0683" style="stop-color:#67616D"/>
		<stop  offset="1" style="stop-color:#4D3E5C"/>
	</radialGradient>
	<circle fill="url(#SVGID_25_)" cx="16" cy="17.477" r="4.969"/>
	
		<linearGradient id="SVGID_26_" gradientUnits="userSpaceOnUse" x1="217.3779" y1="-300.6855" x2="210.4404" y2="-309.5527" gradientTransform="matrix(1 0 0 -1 -197.6602 -287.96)">
		<stop  offset="0" style="stop-color:#2C2634"/>
		<stop  offset="0.5988" style="stop-color:#40344C"/>
	</linearGradient>
	<circle fill="url(#SVGID_26_)" cx="16" cy="17.477" r="4.969"/>
	<g>
		
			<radialGradient id="SVGID_27_" cx="-82.0083" cy="209.5605" r="0.9997" gradientTransform="matrix(-4.5431 3.3116 3.0941 4.2448 -1002.5952 -601.6425)" gradientUnits="userSpaceOnUse">
			<stop  offset="0.0683" style="stop-color:#67616D"/>
			<stop  offset="1" style="stop-color:#4D3E5C"/>
		</radialGradient>
		<circle fill="url(#SVGID_27_)" cx="16" cy="17.477" r="4.352"/>
		
			<radialGradient id="SVGID_28_" cx="-86.4219" cy="185.5771" r="0.9996" gradientTransform="matrix(-6.1562 3.9375 3.8099 5.9566 -1220.6797 -749.4684)" gradientUnits="userSpaceOnUse">
			<stop  offset="0.7798" style="stop-color:#554863;stop-opacity:0"/>
			<stop  offset="0.9854" style="stop-color:#554863"/>
		</radialGradient>
		<circle fill="url(#SVGID_28_)" cx="16" cy="17.477" r="4.352"/>
	</g>
	
		<linearGradient id="SVGID_29_" gradientUnits="userSpaceOnUse" x1="215.2158" y1="-307.5039" x2="211.997" y2="-303.2225" gradientTransform="matrix(1 0 0 -1 -197.6602 -287.96)">
		<stop  offset="0" style="stop-color:#463755"/>
		<stop  offset="1" style="stop-color:#473F51"/>
	</linearGradient>
	<circle fill="url(#SVGID_29_)" cx="16" cy="17.477" r="2.453"/>
	
		<radialGradient id="SVGID_30_" cx="-110.6455" cy="-48.2866" r="1.0003" gradientTransform="matrix(2.7812 -3.1562 -2.1644 -1.9072 217.5979 -422.0048)" gradientUnits="userSpaceOnUse">
		<stop  offset="0" style="stop-color:#544E5C"/>
		<stop  offset="1" style="stop-color:#544E5C;stop-opacity:0"/>
	</radialGradient>
	<circle fill="url(#SVGID_30_)" cx="16" cy="17.477" r="2.453"/>
	
		<radialGradient id="SVGID_31_" cx="-88.0469" cy="334.6621" r="0.9998" gradientTransform="matrix(-1.8594 1.25 1.25 1.8594 -563.591 -496.7956)" gradientUnits="userSpaceOnUse">
		<stop  offset="0" style="stop-color:#544E5C"/>
		<stop  offset="1" style="stop-color:#544E5C;stop-opacity:0"/>
	</radialGradient>
	<circle fill="url(#SVGID_31_)" cx="16" cy="17.477" r="2.453"/>
	
		<linearGradient id="SVGID_32_" gradientUnits="userSpaceOnUse" x1="-64.0352" y1="-391.6924" x2="-64.7707" y2="-393.3898" gradientTransform="matrix(0.8194 -0.5732 -0.5732 -0.8194 -154.1595 -342.9118)">
		<stop  offset="0.0512" style="stop-color:#F3F2F4"/>
		<stop  offset="1" style="stop-color:#F3F2F4;stop-opacity:0"/>
	</linearGradient>
	<path fill="url(#SVGID_32_)" d="M17.438,14.631c0.379-0.266,0.953-0.098,1.283,0.374s0.29,1.069-0.088,1.333
		c-0.379,0.266-0.953,0.098-1.283-0.374S17.061,14.895,17.438,14.631z"/>
	<g>
		<rect x="29.016" y="11.758" fill="#8D8D92" width="0.469" height="11.5"/>
	</g>
</g>
</svg>
